<svg xmlns="http://www.w3.org/2000/svg" width="272.409" height="419.394" viewBox="0 0 272.409 419.394">
  <g id="Group_4" data-name="Group 4" transform="translate(-909.14 -851.322)">
    <g id="Head" transform="matrix(0.966, -0.259, 0.259, 0.966, 997.508, 864.029)">
      <path id="Head-2" data-name="Head" d="M0,76.191,8.637,36C3.821,30.352.56,23.433,1.1,15.682,2.675-6.654,33.816-1.74,39.873,9.533s5.338,39.868-2.49,41.883c-3.122.8-9.774-1.165-16.543-5.239l4.249,30.013Z" transform="translate(0 0)" fill="#e6b282"/>
    </g>
    <path id="Hair" d="M29.174,13.1c-3.537,1.865-6.006,5.486-8.993,10.273A6.265,6.265,0,0,0,13.5,33.683c-1.451,2.045-3.078,4.182-4.942,6.386C1.561,35.875-4.311,23.1,2.535,11.3c1.892-5.778,6.852-8.364,11.911-9.8A18.223,18.223,0,0,1,26.389.627c7.039.6,13.325,2.746,15.107,4.019,0,6.654-1.291,8.628-12.321,8.454Z" transform="matrix(0.966, -0.259, 0.259, 0.966, 996.86, 862.062)" fill="#191847"/>
    <path id="Leg" d="M0,0,51.309,129.657,85.721,239.271H99.31L46.7,0Z" transform="translate(1028.816 1021.269)" fill="#e6b282"/>
    <path id="Leg-2" data-name="Leg" d="M97.68,0c-.546,45.562-8.514,106.9-9.787,109.745S0,181.979,0,181.979l9.359,10s102.2-59.5,106.933-67.432S136.419,43.589,148.782,0Z" transform="translate(920.804 1021.269)" fill="#e6b282"/>
    <path id="Pant" d="M80.928,220.98H105.75L57.867,0H0Z" transform="translate(1022.172 1021.269)" fill="#69a1ac"/>
    <path id="Pant-2" data-name="Pant" d="M0,165.846l21.044,22.827s74.447-39.337,85.562-61.606S122.069,0,122.069,0H75.286s-2.97,100.949-4.656,104.977S0,165.846,0,165.846Z" transform="translate(934.168 1021.269)" fill="#89c5cc"/>
    <path id="Skin" d="M1.282,90.576c-1.167-.718-2.444-3.423.643-5.536C9.617,79.774,20.7,70.559,22.2,67.524c3.063-6.2,13.5-66.681,13.5-66.681L57.54.93s-20.233,65.211-21.845,69.2c-2.419,5.985,2.7,15.1,4.889,20-3.45,1.541-5.053-.426-6.808-2.394-1.87-2.1-3.915-4.2-8.555-2.039-5.938,2.758-10.847,7.137-16.7,7.136A13.594,13.594,0,0,1,1.282,90.576ZM189.374,31.864l-33.02-13.671L163.724,0,197.07,24.447a89.815,89.815,0,0,1,22.668,9.095c1.434,1.3,3.166,3.944-2.778,3.489s-12.218-.67-13.038,1.355,2.777,4.445,1.119,7.177a.788.788,0,0,1-.723.389Q201.386,45.951,189.374,31.864Z" transform="matrix(0.985, -0.174, 0.174, 0.985, 947.658, 1026.02)" fill="#e6b282"/>
    <path id="Coat_Back" data-name="Coat Back" d="M0,2.33,8.87,0c35.933,25.894,54.5,80.054,98.019,105.8L98.1,118.859C26.283,116.292,2.765,50.306,0,2.33Z" transform="matrix(0.996, -0.087, 0.087, 0.996, 1028, 917.42)" fill="#e87613"/>
    <path id="Shirt" d="M0,118.983H79.983c3.655,0,2.966-5.269,2.438-7.928-6.1-30.686-29.9-63.763-29.9-107.443L29.45,0C10.367,30.642,3.768,68.368,0,118.983Z" transform="matrix(0.985, -0.174, 0.174, 0.985, 988.43, 921.104)" fill="#dde3e9"/>
    <path id="Coat_Front" data-name="Coat Front" d="M.106,166.486C-1.739,106.912,20.853,61.067,39.759,33.426a12.134,12.134,0,0,1-10.383-6.368C20.945,11.866,23.989,3.5,33,.753S50.049,3.667,64.407,3.667a11.208,11.208,0,0,1,1.712.122l7.656.436S104.858,109.4,90.92,144.568H27.7a200.144,200.144,0,0,1-10.441,21.918Z" transform="matrix(0.985, -0.174, 0.174, 0.985, 951.657, 923.865)" fill="#ff9b21"/>
    <path id="Shade" d="M23.628,38.144H0C4.333,27.753,9.114,14.92,14.207,0c2.121,18.386,5.29,31.219,9.42,38.142Z" transform="matrix(0.985, -0.174, 0.174, 0.985, 997.417, 1023.862)" fill="rgba(0,0,0,0.1)"/>
    <g id="Left_Shoe" data-name="Left Shoe" transform="translate(924.421 1193.46) rotate(50)">
      <path id="shoe" d="M4.318,4.537a1.93,1.93,0,0,0-2.476,1.3L0,12.329a62,62,0,0,0,.87,7.619H55.308s2.122-7.015-2.45-7.575-7.6-1.01-7.6-1.01L19.96.084A.965.965,0,0,0,18.675.6L17.048,4.543S12.816,6.518,10.17,6.518Z" transform="translate(0 0)" fill="#e4e4e4"/>
    </g>
    <g id="Right_Shoe" data-name="Right Shoe" transform="translate(1107.219 1249.145)">
      <path id="shoe-2" data-name="shoe" d="M4.676,5.238A2.091,2.091,0,0,0,2,6.646L0,13.664A66.948,66.948,0,0,0,.942,21.9H59.9s2.3-7.586-2.653-8.191-8.227-1.092-8.227-1.092L21.618.423a1.046,1.046,0,0,0-1.392.555L18.465,5.244S13.881,7.38,11.015,7.38Z" transform="translate(0 -0.332)" fill="#e4e4e4"/>
    </g>
  </g>
</svg>
