<?xml version="1.0" encoding="utf-8"?>
<!-- Generator: Adobe Illustrator 24.2.0, SVG Export Plug-In . SVG Version: 6.00 Build 0)  -->
<svg version="1.1" id="Layer_1" xmlns="http://www.w3.org/2000/svg" xmlns:xlink="http://www.w3.org/1999/xlink" x="0px" y="0px"
	 viewBox="0 0 277.8 332.1" style="enable-background:new 0 0 277.8 332.1;" xml:space="preserve">
<style type="text/css">
	.st0{fill:#B28B67;}
	.st1{fill:#2C2C2C;}
	.st2{fill:#8991DC;}
	.st3{fill:#6D76AA;}
	.st4{fill:#1F28CF;}
	.st5{fill:#2B44FF;}
	.st6{fill:#E4E4E4;}
	.st7{fill:#2F3676;}
	.st8{fill:#191847;}
	.st9{fill:#997659;}
	.st10{fill:#AFB9C5;}
	.st11{fill:#C5CFD6;}
</style>
<g id="Group_3" transform="translate(-1197.433 -354.743)">
	<g id="Head_Front" transform="translate(1262.119 361.642) rotate(-8)">
		<g id="Head" transform="translate(17.893 2.304)">
			<path id="Head-2" class="st0" d="M0,74.4l8.5-39.3c-4.7-5.5-7.9-12.3-7.4-19.9c1.5-21.8,32.1-17,38-6s5.2,39-2.4,40.9
				c-3.1,0.8-9.6-1.1-16.2-5.1l4.2,29.3H0z"/>
		</g>
		<g id="Hijab" transform="translate(0 0)">
			<path id="Front" class="st1" d="M51.4,4.4c-0.6-0.3-1.7-1-2.3-1.3C49,3,48,2.3,47.9,2.3c-0.7,0.3-2.9,1.2-3.1,2
				c0,0.1-0.1,0.1-0.1,0.2c-0.3,0.6-0.6,1.1-0.9,1.7c-0.6,1.3-1.1,2.6-1.6,3.9c-0.9,2.6-1.8,5.2-2.5,7.8c-0.8,2.7-1.4,5.4-2.2,8.1
				c-1.1,3.9-2.4,7.6-3.5,11.5c-0.7,2.4-1,5-0.9,7.5c0,0,0,0.1,0,0.1c0,0,0,0,0,0c0,0.4,0.1,0.8,0.1,1.2c0,0.3,0.1,0.7,0.2,1
				c1-1.9,1.7-4,2.5-6c0.1-0.2,0.1-0.4,0.2-0.6c0.2-0.4,0.5-0.8,0.8-1.2c1.6-2.5,3.3-5,4.8-7.6c2.7-4.7,5.7-9.2,8.9-13.5
				c1-1.2,2-2.5,3-3.7c0.6-0.7,1.1-1.4,1.6-2.2c0.4-0.5,2-2.4,1.4-3.5C55.1,7.2,53.4,5.7,51.4,4.4z"/>
			<path id="Turban" class="st2" d="M49.3,3.2c0.5,0.2,0.3-1-0.2-1.4C46.6,0,37.2-0.7,29,1c-5.9,1.3-11.5,3.8-16.2,7.6
				C8.8,11.8,6.1,17,4.7,22.1C3.3,27.4,3,33,3.8,38.4c0.2,1.2,0.6,2.3,0.8,3.5c0.2,1.3,0.4,2.6,0.8,3.9c0.3,0.8,0.7,1.6,0.9,2.3
				c0.2,0.9,0.2,1.8-0.1,2.7c-0.3,1.5-0.7,3-1.2,4.4c-0.8,2.1-1.8,4.1-2.4,6.4c-0.8,3-4.2,12.6-1.7,15.2l47.7,0
				c-1.2-3.3-4.8-7.1-5.5-10.6c-0.4-2.1-0.6-6.5-0.7-6.7c-1.1-7.4-3.2-10.9-4.5-12.2s-3.1-1.7-3.2-2.8c-0.4-4.6,1.5-9,2.8-13.2
				c1.6-5.1,2.8-10.3,4.4-15.4C42.7,13.6,46.4,2.2,49.3,3.2z"/>
			<path id="Shade" class="st3" d="M13.5,48.9l0.7-0.9c9.8,3.1,8.7,9.4,21.1,15.8l-1,0.6C23.4,60.1,20.9,50.5,13.5,48.9z M21.4,14.9
				l0.8-0.1c1.5,11.5,2,18,9.9,30.6l-0.8,0.3C23.1,34.8,21.8,25.8,21.4,14.9z M7.7,23.4l0.7-0.3c3.3,8.1,4.9,12.9,14.2,19.4L22,43
				C12.7,37.8,10,31.5,7.7,23.4z M29.9,24.9c-1.6-7.3-0.2-14.2,1.6-16.5h1.1c-1.8,5.7-2.2,8.7-1.8,16.5L29.9,24.9z"/>
		</g>
	</g>
	<g id="Bottom_Skinny_Jeans_1" transform="translate(1202.946 515.729)">
		<path id="Skin" class="st0" d="M216.4,154.1c-1-12.9-2.9-57.5-1-78.2c0.6-6.2,1.2-12.3,1.8-17.9c-18.4,32.7-47.5,79.3-47.5,79.3
			l-11.8-5.4c0,0,13.9-45.6,22.8-64.4c10.2-21.4,19.7-39.8,23.7-46.3c5.3-8.5,13.9-7.4,19.9-3.2c7.4-9.9,25.7-3.4,25.7,4.9
			c0,21.6-19.8,124.1-20.8,130.5c-0.6,3.5-4.1,5.8-7.3,5.8C219.1,159.3,216.7,157.8,216.4,154.1z"/>
		<path id="Leg_Back" class="st4" d="M158.7,115.1l40.5-95.5c9.7-15.5,36.9,3.2,33.6,12.2c-7.5,20.5-45.7,86.7-47.9,92.8
			L158.7,115.1z"/>
		<path id="Leg_Front" class="st5" d="M251,30.5c0,27.1-11.9,90.7-11.9,96.7l-28.9-1c0,0,7.6-83,6.4-83.5
			c-1.8-0.8-72.9,9.8-94.2,10.6C91.6,54.4,78.9,35.6,77.9,0h59.6c0,0,76.4,9.1,100.4,12.6C248.2,14.1,251,23.1,251,30.5z"/>
		<g id="Left_Shoe" transform="translate(156.927 118.381) rotate(14)">
			<path id="shoe" class="st6" d="M3.6,3.8c-0.8-0.3-1.7,0.2-2,1c0,0,0,0,0,0.1L0,10.2c0.1,2.1,0.4,4.2,0.7,6.3l45.1,0
				c0,0,1.8-5.8-2-6.3c-3.8-0.5-6.3-0.8-6.3-0.8l-21-9.3c-0.4-0.2-0.9,0-1.1,0.4c0,0,0,0,0,0l-1.3,3.3c0,0-3.5,1.6-5.7,1.6L3.6,3.8z
				"/>
		</g>
		<g id="Right_Shoe" transform="translate(213.097 132.661)">
			<path id="shoe-2" class="st6" d="M4.6,4.8C3.5,4.4,2.3,5,2,6.1c0,0,0,0.1,0,0.1L0,13c0.1,2.7,0.4,5.4,0.9,8.1h57.8
				c0,0,2.3-7.4-2.6-8S48,12,48,12L21.2,0.1c-0.5-0.2-1.1,0-1.4,0.5c0,0,0,0,0,0l-1.7,4.2c0,0-4.5,2.1-7.3,2.1L4.6,4.8z"/>
		</g>
		<path id="Base" class="st7" d="M217.7,153.7h47.2c2,0,3.6,1.6,3.6,3.6v0c0,2-1.6,3.6-3.6,3.6h-47.2c-2,0-3.6-1.6-3.6-3.6v0
			C214.1,155.3,215.7,153.7,217.7,153.7z"/>
		<path id="Seat" class="st7" d="M74.5,5.9h110.1c5.5,0,10,4.5,10,10V66l0,0H68.5c-2.2,0-4-1.8-4-4V15.9C64.5,10.3,69,5.9,74.5,5.9z
			"/>
		<path id="Wheel_Stuff" class="st7" d="M184.4,5.9h2.2c5,0,9.3,3.6,10.1,8.5l22.5,136.3h-10.9"/>
		<ellipse id="Front_Wheel" class="st8" cx="214.1" cy="152.7" rx="18.4" ry="18.4"/>
		<g id="Wheel" transform="translate(0 14.022)">
			<path id="Wheel-2" class="st8" d="M77.9,155c-31.2,0-59.5-18.6-71.7-47.3c-10.3-24.1-7.5-51.8,7.2-73.5
				c24.2-35.7,72.7-45,108.3-20.8c12.4,8.4,22.1,20.2,28,34c10.3,24.1,7.5,51.8-7.2,73.5C127.9,142.2,103.7,155,77.9,155L77.9,155z
				 M77.9,14.3c-25.5,0-48.5,15.2-58.5,38.6c-8.4,19.7-6.2,42.3,5.9,60c19.7,29.1,59.3,36.7,88.4,17c10.1-6.9,18.1-16.5,22.8-27.7
				c8.4-19.7,6.2-42.3-5.9-60C118.7,24.7,99,14.2,77.9,14.3z"/>
			<rect id="Wheel_Stuff-2" x="73.8" y="10.2" class="st8" width="8.2" height="134.6"/>
			<path id="Wheel_Stuff-3" class="st8" d="M124.2,28.5l2.9,2.9c0.8,0.8,0.8,2.1,0,2.9c0,0,0,0,0,0l-92.7,92.3
				c-0.8,0.8-2.1,0.8-2.9,0l-2.9-2.9c-0.8-0.8-0.8-2.1,0-2.9c0,0,0,0,0,0l92.7-92.3C122.1,27.7,123.4,27.7,124.2,28.5z"/>
			<path id="Wheel_Stuff-4" class="st8" d="M145.5,75.4v4.2c0,1.1-0.9,2-2,2H12.2c-1.1,0-2-0.9-2-2v-4.2c0-1.1,0.9-2,2-2h131.2
				C144.6,73.4,145.5,74.3,145.5,75.4z"/>
			<path id="Wheel_Stuff-5" class="st8" d="M127.1,123.7l-2.9,2.9c-0.8,0.8-2.1,0.8-2.9,0L28.6,34.2c-0.8-0.8-0.8-2.1,0-2.9
				c0,0,0,0,0,0l2.9-2.9c0.8-0.8,2.1-0.8,2.9,0l92.7,92.3C127.9,121.6,127.9,122.9,127.1,123.7C127.1,123.7,127.1,123.7,127.1,123.7
				z"/>
		</g>
	</g>
	<g id="Body_Long_Sleeve_1" transform="translate(1190.194 426.604) rotate(-8)">
		<path id="Skin-2" class="st9" d="M1.3,182.5c-1.1-0.7-2.4-3.3,0.6-5.4C9.4,172,20.3,163,21.8,160C24.8,154,51,75.9,51,75.9
			L73.5,76c0,0-36.9,82.7-38.5,86.6c-2.4,5.8,2.6,14.8,4.8,19.5c-3.4,1.5-5-0.4-6.7-2.3c-1.8-2.1-3.8-4.1-8.4-2
			c-5.8,2.7-10.6,7-16.4,7C5.8,184.7,3.4,183.9,1.3,182.5z M178.1,66.6l40.4-5.5c7-4,14.5-7.1,22.3-9.1c1.9-0.1,5,0.6,0.4,4.4
			s-9.1,7.9-8.3,9.9c0.8,2,5,1.3,5.7,4.3c0.5,2.1-6.4,2.4-20.5,1l-32.8,13L178.1,66.6z"/>
		<path id="Clothes_Back" class="st10" d="M112.5,5.1L130,6.3c4.3,39,27.9,63.5,80.6,55.2l7,50.2c-49.3,6.3-92.5-13.3-101.4-66.5
			C114,31.4,112.2,17,112.5,5.1z"/>
		<path id="Clothes" class="st11" d="M24.8,149.9C37,85.3,62.8,35.4,102.1,0l1.7,0l0,0l26.6,6.1c0,45.6,14.6,74.6,22.1,108.1
			l-71.9,0c-1,11.6-1.6,23.5-2,35.7L24.8,149.9z"/>
		<path id="Shade-2" d="M95.2,114.2H80.6c2.2-25.1,6.1-46.9,11.8-66.7c-0.8,13.2-1.1,25.2-0.8,35.5C92,96.2,93.2,106.7,95.2,114.2z"
			/>
	</g>
</g>
</svg>
